<svg xmlns="http://www.w3.org/2000/svg" viewBox="0 0 100 100" width="100%" height="100%">
  <defs>
    <filter id="shadow" x="-20%" y="-20%" width="140%" height="140%">
      <feDropShadow dx="0" dy="2" stdDeviation="2" flood-color="#000000" flood-opacity="0.15"/>
    </filter>
  </defs>

  <g transform="translate(72, 32)">
    <line x1="0" y1="-17" x2="0" y2="-23" stroke="#FF9800" stroke-width="4" stroke-linecap="round"/>
    <line x1="0" y1="17" x2="0" y2="23" stroke="#FF9800" stroke-width="4" stroke-linecap="round"/>
    <line x1="-17" y1="0" x2="-23" y2="0" stroke="#FF9800" stroke-width="4" stroke-linecap="round"/>
    <line x1="17" y1="0" x2="23" y2="0" stroke="#FF9800" stroke-width="4" stroke-linecap="round"/>
    <line x1="-12" y1="-12" x2="-16" y2="-16" stroke="#FF9800" stroke-width="4" stroke-linecap="round"/>
    <line x1="12" y1="12" x2="16" y2="16" stroke="#FF9800" stroke-width="4" stroke-linecap="round"/>
    <line x1="-12" y1="12" x2="-16" y2="16" stroke="#FF9800" stroke-width="4" stroke-linecap="round"/>
    <line x1="12" y1="-12" x2="16" y2="-16" stroke="#FF9800" stroke-width="4" stroke-linecap="round"/>
    <circle cx="0" cy="0" r="12" fill="#FFC107"/>
  </g>

  <g filter="url(#shadow)">
    <path d="M 40 10 C 22 10 8 24 8 42 C 8 65 40 92 40 92 C 40 92 72 65 72 42 C 72 24 58 10 40 10 Z" fill="#2196F3"/>
    <path d="M 40 10 C 22 10 8 24 8 42 C 8 65 40 92 40 92 L 40 10 Z" fill="#1976D2" opacity="0.2"/>
  </g>

  <g>
    <circle cx="40" cy="40" r="14" fill="none" stroke="#FFFFFF" stroke-width="3"/>
    <line x1="40" y1="20" x2="40" y2="28" stroke="#FFFFFF" stroke-width="3" stroke-linecap="round"/>
    <line x1="40" y1="52" x2="40" y2="60" stroke="#FFFFFF" stroke-width="3" stroke-linecap="round"/>
    <line x1="20" y1="40" x2="28" y2="40" stroke="#FFFFFF" stroke-width="3" stroke-linecap="round"/>
    <line x1="52" y1="40" x2="60" y2="40" stroke="#FFFFFF" stroke-width="3" stroke-linecap="round"/>
    <circle cx="40" cy="40" r="5" fill="#FFFFFF"/>
  </g>

  <g filter="url(#shadow)">
    <circle cx="56" cy="65" r="10" fill="#BBDEFB" />
    <circle cx="72" cy="57" r="14" fill="#BBDEFB" />
    <circle cx="88" cy="65" r="10" fill="#BBDEFB" />
    <rect x="56" y="55" width="32" height="20" fill="#BBDEFB" />
    
    <circle cx="56" cy="63" r="10" fill="#FFFFFF" />
    <circle cx="72" cy="55" r="14" fill="#FFFFFF" />
    <circle cx="88" cy="63" r="10" fill="#FFFFFF" />
    <rect x="56" y="53" width="32" height="20" fill="#FFFFFF" />
  </g>
</svg>
